<svg xmlns="http://www.w3.org/2000/svg" width="190" height="38" viewBox="0 0 190 38" fill="none">
  <defs>
    <linearGradient id="lg" x1="0" y1="0" x2="1" y2="1">
      <stop offset="0%" stop-color="#f472b6"/>
      <stop offset="40%" stop-color="#e879f9"/>
      <stop offset="100%" stop-color="#a78bfa"/>
    </linearGradient>
  </defs>
  <g transform="translate(6, 8)" opacity="0.55">
    <path d="M0,-4 L1.1,-1.2 L4,-1 L1.5,0.5 L2.2,3.5 L0,1.8 L-2.2,3.5 L-1.5,0.5 L-4,-1 L-1.1,-1.2 Z" fill="url(#lg)"/>
  </g>
  <g transform="translate(68, 6)" opacity="0.4">
    <path d="M0,-3.5 L0.9,-1 L3.2,-0.8 L1.3,0.5 L1.8,3 L0,1.6 L-1.8,3 L-1.3,0.5 L-3.2,-0.8 L-0.9,-1 Z" fill="url(#lg)"/>
  </g>
  <g transform="translate(112, 5)" opacity="0.5">
    <path d="M0,-3 L0.8,-0.9 L3,-0.8 L1.2,0.4 L1.5,2.8 L0,1.5 L-1.5,2.8 L-1.2,0.4 L-3,-0.8 L-0.8,-0.9 Z" fill="url(#lg)"/>
  </g>
  <circle cx="162" cy="7" r="1.6" fill="#e879f9" opacity="0.5"/>
  <circle cx="166" cy="10" r="1" fill="#f472b6" opacity="0.35"/>
  <path d="M12,32 Q40,36 76,32 Q112,28 148,34 Q168,37 180,31"
    stroke="url(#lg)" stroke-width="1.2" fill="none" stroke-linecap="round" opacity="0.35"/>
  <text x="10" y="26"
    font-family="'STXingkai','HYXingKai','FZXingKaiS','KaiTi','STKaiti','Noto Serif SC',serif"
    font-size="25"
    font-weight="300"
    letter-spacing="-0.5"
    fill="url(#lg)">次元小站</text>
</svg>
